<svg xmlns="http://www.w3.org/2000/svg" viewBox="0 0 512 512">
  <rect width="512" height="512" rx="116" fill="#e3132c"/>
  <path fill="#fff" d="M109 308c0-26 17-49 41-57l22-73c8-27 33-46 62-46h44c29 0 54 19 62 46l22 73c24 8 41 31 41 57v45c0 15-12 27-27 27h-21v-45H157v45h-21c-15 0-27-12-27-27v-45Zm96-107-14 48h130l-14-48c-4-12-15-21-29-21h-44c-14 0-25 9-29 21Z"/>
  <circle cx="185" cy="335" r="34" fill="#fff"/>
  <circle cx="327" cy="335" r="34" fill="#fff"/>
  <path fill="#fff" d="M256 83c25 0 46 20 46 45s-21 46-46 46-46-21-46-46 21-45 46-45Z" opacity=".72"/>
  <path fill="#fff" d="M214 161h84c23 0 42 19 42 42v15H172v-15c0-23 19-42 42-42Z" opacity=".72"/>
</svg>
